<svg id="Layer_1" data-name="Layer 1" xmlns="http://www.w3.org/2000/svg" viewBox="0 0 236.01 27.29"><defs><style>.cls-1{fill:#686868;}</style></defs><title>ibm_developerworks_to-svg</title><path class="cls-1" d="M12.91,21.78H12.85a5.2,5.2,0,0,1-4.78,2.44C3.31,24.22,1,20.17,1,15.78c0-4.23,2.34-8.16,7-8.16A5.42,5.42,0,0,1,12.63,10H12.7V2H17V23.79H12.91v-2ZM9.13,10.88c-2.83,0-3.81,2.47-3.81,5S6.45,21,9.13,21c2.83,0,3.71-2.5,3.71-5.09S11.93,10.88,9.13,10.88Z" transform="translate(-1 -2.05)"/><path class="cls-1" d="M23.44,17c0.12,2.77,1.43,4,3.87,4a3.56,3.56,0,0,0,3.41-2h3.81c-1.22,3.75-3.81,5.3-7.37,5.3-5,0-8-3.41-8-8.28,0-4.72,3.26-8.31,8-8.31,5.36,0,8,4.51,7.64,9.35H23.44Zm7-2.74C30.08,12,29.14,10.88,27,10.88a3.39,3.39,0,0,0-3.59,3.35h7Z" transform="translate(-1 -2.05)"/><path class="cls-1" d="M45.16,23.79H40.35L35,8h4.54L42.81,18.8h0.06L46.19,8h4.29Z" transform="translate(-1 -2.05)"/><path class="cls-1" d="M54.66,17c0.12,2.77,1.43,4,3.87,4a3.56,3.56,0,0,0,3.41-2h3.81c-1.22,3.75-3.81,5.3-7.37,5.3-5,0-8-3.41-8-8.28,0-4.72,3.26-8.31,8-8.31,5.36,0,8,4.51,7.64,9.35H54.66Zm7-2.74c-0.4-2.19-1.34-3.35-3.44-3.35a3.39,3.39,0,0,0-3.59,3.35h7Z" transform="translate(-1 -2.05)"/><path class="cls-1" d="M68.39,2h4.33V23.79H68.39V2Z" transform="translate(-1 -2.05)"/><path class="cls-1" d="M83.19,7.62c5,0,8.16,3.29,8.16,8.31s-3.2,8.28-8.16,8.28-8.13-3.29-8.13-8.28S78.26,7.62,83.19,7.62Zm0,13.34c3,0,3.84-2.5,3.84-5s-0.88-5.06-3.84-5.06-3.81,2.53-3.81,5.06S80.27,21,83.19,21Z" transform="translate(-1 -2.05)"/><path class="cls-1" d="M93.58,8h4.11v2h0.06a5.21,5.21,0,0,1,4.69-2.44c4.94,0,7.16,4,7.16,8.47,0,4.2-2.29,8.13-6.91,8.13A5.59,5.59,0,0,1,98,21.84H97.9v7.49H93.58V8ZM105.27,16c0-2.53-1-5.09-3.78-5.09S97.75,13.41,97.75,16s1,5,3.78,5S105.27,18.52,105.27,16Z" transform="translate(-1 -2.05)"/><path class="cls-1" d="M115.35,17c0.12,2.77,1.43,4,3.87,4a3.56,3.56,0,0,0,3.41-2h3.81c-1.22,3.75-3.81,5.3-7.37,5.3-5,0-8-3.41-8-8.28,0-4.72,3.26-8.31,8-8.31,5.36,0,8,4.51,7.64,9.35H115.35Zm7-2.74C122,12,121,10.88,118.95,10.88a3.39,3.39,0,0,0-3.59,3.35h7Z" transform="translate(-1 -2.05)"/><path class="cls-1" d="M129,8h4.11V11h0.06a5.54,5.54,0,0,1,5-3.35,3.23,3.23,0,0,1,.95.15v4a7.9,7.9,0,0,0-1.55-.15c-3.2,0-4.27,2.25-4.27,5.06v7.1H129V8Z" transform="translate(-1 -2.05)"/><path class="cls-1" d="M161.43,23.79h-4.75L153,9h-0.06l-3.62,14.8h-4.84L138.71,2h4.78l3.44,14.8H147L150.77,2h4.48L159,17H159l3.56-15h4.69Z" transform="translate(-1 -2.05)"/><path class="cls-1" d="M174.8,7.62c5,0,8.16,3.29,8.16,8.31s-3.2,8.28-8.16,8.28-8.13-3.29-8.13-8.28S169.86,7.62,174.8,7.62Zm0,13.34c3,0,3.84-2.5,3.84-5s-0.88-5.06-3.84-5.06S171,13.41,171,15.93,171.87,21,174.8,21Z" transform="translate(-1 -2.05)"/><path class="cls-1" d="M185.18,8h4.11V11h0.06a5.54,5.54,0,0,1,5-3.35,3.23,3.23,0,0,1,.95.15v4a7.9,7.9,0,0,0-1.55-.15c-3.2,0-4.27,2.25-4.27,5.06v7.1h-4.32V8Z" transform="translate(-1 -2.05)"/><path class="cls-1" d="M197.42,2h4.32V13.71L207.2,8h5.12l-5.94,5.79,6.61,10h-5.24l-4.32-7-1.68,1.61v5.42h-4.32V2Z" transform="translate(-1 -2.05)"/><path class="cls-1" d="M217.19,18.67c0,1.86,1.64,2.65,3.32,2.65,1.22,0,2.83-.49,2.83-2,0-1.31-1.83-1.8-4.9-2.44-2.53-.58-5-1.4-5-4.2,0-4,3.47-5.06,6.85-5.06s6.61,1.16,6.94,5h-4.11c-0.12-1.68-1.4-2.13-3-2.13-1,0-2.41.15-2.41,1.46,0,1.55,2.47,1.77,4.9,2.35s5,1.49,5,4.42c0,4.14-3.62,5.48-7.19,5.48s-7.25-1.37-7.4-5.54h4.11Z" transform="translate(-1 -2.05)"/><path class="cls-1" d="M236,22.74a3.58,3.58,0,0,1-5.06-5.07A3.58,3.58,0,0,1,237,20.19,3.48,3.48,0,0,1,236,22.74ZM231.24,18a3,3,0,0,0-.9,2.18,3,3,0,0,0,.89,2.2,3.08,3.08,0,0,0,4.37,0,3.12,3.12,0,0,0,0-4.38A3.07,3.07,0,0,0,231.24,18Zm2.11,0.2a3,3,0,0,1,1.07.14,1,1,0,0,1,.61,1,0.86,0.86,0,0,1-.38.78,1.49,1.49,0,0,1-.57.19,1,1,0,0,1,.68.39,1.08,1.08,0,0,1,.21.61V21.6q0,0.14,0,.29a0.63,0.63,0,0,0,0,.2l0,0h-0.65V21.63a1,1,0,0,0-.37-0.9,1.67,1.67,0,0,0-.77-0.13h-0.55v1.55H232V18.22h1.38Zm0.75,0.62a1.8,1.8,0,0,0-.84-0.15h-0.59v1.43h0.63A1.89,1.89,0,0,0,234,20,0.71,0.71,0,0,0,234.1,18.84Z" transform="translate(-1 -2.05)"/></svg>